<svg version="1.1" id="Layer_1" xmlns="http://www.w3.org/2000/svg" xmlns:xlink="http://www.w3.org/1999/xlink" x="0px" y="0px"
	 width="100%" viewBox="0 0 400 400" enable-background="new 0 0 400 400" xml:space="preserve">
<path fill="#FFFFFF" opacity="1.000000" stroke="none" 
	d="
M222.000000,401.000000 
	C148.022964,401.000000 74.545929,401.000000 1.034447,401.000000 
	C1.034447,267.731293 1.034447,134.462585 1.034447,1.096937 
	C134.226990,1.096937 267.454071,1.096937 400.840576,1.096937 
	C400.840576,134.333176 400.840576,267.666565 400.840576,401.000000 
	C341.462677,401.000000 281.981323,401.000000 222.000000,401.000000 
M254.006332,58.496304 
	C250.192764,54.682121 246.686203,50.487568 242.512772,47.119282 
	C223.953094,32.140190 202.802811,29.151730 180.552658,35.982990 
	C155.901825,43.551311 141.157852,60.946648 134.912781,85.822044 
	C134.462128,87.617096 133.083725,90.101135 131.600037,90.571289 
	C117.861343,94.924881 104.085014,99.212822 90.147873,102.864304 
	C83.316238,104.654182 76.122330,105.061333 67.995888,106.255386 
	C67.995888,117.468597 67.879753,128.226624 68.039513,138.980545 
	C68.135078,145.413589 68.564804,151.847153 69.020393,158.268005 
	C69.602028,166.465454 69.823204,174.738647 71.150688,182.823044 
	C74.389313,202.546341 78.965096,221.949432 85.962486,240.763977 
	C96.304054,268.570374 110.870018,293.903870 130.640533,315.952728 
	C147.170319,334.387390 166.375778,349.596405 187.814041,362.373291 
	C197.770111,368.306915 204.516388,368.094879 214.272949,362.284912 
	C239.160187,347.464722 260.674011,329.213715 278.875092,306.744720 
	C296.312897,285.218048 308.767487,261.096252 318.056488,235.153000 
	C329.324768,203.681717 333.147125,170.999496 333.922058,137.851166 
	C334.130493,128.934875 333.328400,119.995506 333.012299,111.065941 
	C332.954620,109.437088 333.004059,107.804451 333.004059,106.142517 
	C326.078400,105.046089 319.650391,103.902115 313.185669,103.030708 
	C298.747284,101.084534 284.988770,96.750061 271.660095,91.067741 
	C269.701263,90.232643 267.662720,87.761612 267.145477,85.678848 
	C264.715973,75.895981 260.774170,66.933098 254.006332,58.496304 
z"/>
<path fill="#3257A3" opacity="1.000000" stroke="none" 
	d="
M254.263245,58.753159 
	C260.774170,66.933098 264.715973,75.895981 267.145477,85.678848 
	C267.662720,87.761612 269.701263,90.232643 271.660095,91.067741 
	C284.988770,96.750061 298.747284,101.084534 313.185669,103.030708 
	C319.650391,103.902115 326.078400,105.046089 333.004059,106.142517 
	C333.004059,107.804451 332.954620,109.437088 333.012299,111.065941 
	C333.328400,119.995506 334.130493,128.934875 333.922058,137.851166 
	C333.147125,170.999496 329.324768,203.681717 318.056488,235.153000 
	C308.767487,261.096252 296.312897,285.218048 278.875092,306.744720 
	C260.674011,329.213715 239.160187,347.464722 214.272949,362.284912 
	C204.516388,368.094879 197.770111,368.306915 187.814041,362.373291 
	C166.375778,349.596405 147.170319,334.387390 130.640533,315.952728 
	C110.870018,293.903870 96.304054,268.570374 85.962486,240.763977 
	C78.965096,221.949432 74.389313,202.546341 71.150688,182.823044 
	C69.823204,174.738647 69.602028,166.465454 69.020393,158.268005 
	C68.564804,151.847153 68.135078,145.413589 68.039513,138.980545 
	C67.879753,128.226624 67.995888,117.468597 67.995888,106.255386 
	C76.122330,105.061333 83.316238,104.654182 90.147873,102.864304 
	C104.085014,99.212822 117.861343,94.924881 131.600037,90.571289 
	C133.083725,90.101135 134.462128,87.617096 134.912781,85.822044 
	C141.157852,60.946648 155.901825,43.551311 180.552658,35.982990 
	C202.802811,29.151730 223.953094,32.140190 242.512772,47.119282 
	C246.686203,50.487568 250.192764,54.682121 254.263245,58.753159 
M232.371582,158.964523 
	C217.146133,166.960358 201.112320,169.171112 184.497406,164.747925 
	C161.877243,158.726028 146.696442,144.065628 138.005386,122.797607 
	C124.956665,126.924698 112.364891,130.907257 99.626312,134.936249 
	C99.304001,166.081879 103.797989,196.460342 114.395943,226.586777 
	C181.691940,215.861969 230.917816,178.354904 270.430267,124.931458 
	C268.881165,124.192780 268.036346,123.713104 267.136688,123.382599 
	C266.242859,123.054245 265.293884,122.875916 264.029602,122.542183 
	C257.762909,138.231827 247.735641,150.478149 232.371582,158.964523 
M148.426407,221.070328 
	C136.696579,223.971802 124.966751,226.873291 113.062332,229.817963 
	C101.414955,197.561661 96.580315,165.435944 97.158089,133.138748 
	C110.912117,128.815781 124.001534,124.701714 137.387558,120.494408 
	C136.642746,117.981438 136.190033,116.453949 135.821915,115.211922 
	C121.121628,119.581909 106.705292,123.867477 91.736244,128.317368 
	C91.674713,129.047394 91.438438,130.680130 91.413773,132.316055 
	C90.925499,164.700714 95.324196,196.338821 105.949799,227.019028 
	C122.815033,275.715485 152.547440,314.064423 197.080826,340.582184 
	C199.844315,342.227753 201.886856,342.406952 204.730011,340.721283 
	C228.238297,326.783691 248.426208,309.116852 264.638672,287.115479 
	C295.963531,244.605606 308.956604,196.123306 310.577545,144.042114 
	C310.751495,138.453995 310.600983,132.855759 310.600983,128.492371 
	C295.069000,123.840874 280.691650,119.535156 266.079590,115.159157 
	C265.706543,116.663445 265.323181,118.209435 264.925262,119.814110 
	C268.042206,121.192101 270.810913,122.416115 273.643982,123.668602 
	C247.616959,162.293335 204.354889,202.884888 148.426407,221.070328 
M175.910309,129.431839 
	C186.145401,128.619476 194.191132,133.084778 201.047104,140.487686 
	C210.163589,130.502777 220.724243,127.074806 233.420349,130.899078 
	C234.587402,131.250626 236.457642,130.720718 237.458817,129.920944 
	C242.034836,126.265511 245.070480,121.627022 245.662201,115.605957 
	C246.320114,108.911324 242.760193,102.885727 237.919174,102.878922 
	C213.258682,102.844269 188.598022,102.835732 163.937866,102.931694 
	C162.481201,102.937363 160.578873,103.524208 159.651657,104.540817 
	C155.646149,108.932533 155.381760,117.483810 158.753662,123.294403 
	C162.680344,130.061005 165.225937,131.238419 173.105545,129.934647 
	C173.762131,129.825989 174.419983,129.725098 175.910309,129.431839 
M241.901749,74.731644 
	C238.790802,69.774872 234.839417,68.325531 228.875565,69.931648 
	C224.922104,70.996346 220.004990,70.947983 216.206787,69.541382 
	C210.624054,67.473923 205.655182,63.748878 200.123459,60.556068 
	C192.927383,68.364967 183.585495,73.116837 172.156097,69.843369 
	C166.170013,68.128914 162.897217,70.480431 160.200851,74.761269 
	C158.560501,77.365547 157.278427,80.401611 156.671875,83.412239 
	C154.859787,92.406693 158.999664,97.349297 167.890427,97.349342 
	C190.038193,97.349457 212.185944,97.349487 234.333710,97.349312 
	C242.654770,97.349243 246.896225,92.559776 245.499924,84.164307 
	C244.996628,81.138145 243.391052,78.295319 241.901749,74.731644 
M151.165863,87.179100 
	C150.618668,78.577576 155.081421,72.137665 161.001266,66.086456 
	C158.596176,64.472794 156.707428,63.205563 154.853638,61.961796 
	C134.912262,83.059990 137.294815,121.219002 155.142136,138.006195 
	C157.080872,136.677658 159.030457,135.341690 161.118240,133.911026 
	C154.272415,127.312912 148.597321,119.818245 151.903732,111.105278 
	C155.085876,102.719795 154.533096,95.623306 151.165863,87.179100 
M259.921204,113.195969 
	C263.478790,94.240181 259.881958,77.070282 247.403275,61.662201 
	C245.082382,63.332932 243.157623,64.718491 241.146194,66.166451 
	C241.968933,67.171310 242.362015,67.705658 242.809402,68.189819 
	C252.055969,78.196465 253.056290,85.757317 247.097473,98.057045 
	C246.490341,99.310257 246.855011,101.504601 247.562378,102.842628 
	C250.563843,108.520058 252.281418,114.501991 249.780914,120.540817 
	C247.755066,125.433365 244.494354,129.814590 241.692688,134.573242 
	C243.314056,135.618347 245.242386,136.861328 247.405319,138.255524 
	C253.755569,131.162369 257.368286,122.909851 259.921204,113.195969 
M218.193817,135.110092 
	C202.667038,141.081070 202.440308,145.824875 204.348267,160.137054 
	C219.736023,159.415756 232.611603,153.353622 243.887924,142.432098 
	C236.354050,136.302444 228.302856,133.693146 218.193817,135.110092 
M165.053223,148.482437 
	C174.816177,155.515366 185.526169,159.765167 197.642334,160.093246 
	C200.108902,147.362000 197.665771,141.412064 188.392426,136.846405 
	C179.268799,132.354446 165.546936,135.024826 158.469833,142.893250 
	C160.477753,144.606903 162.483337,146.318542 165.053223,148.482437 
M227.516449,45.898392 
	C220.132889,42.424675 212.502945,40.009369 204.271973,40.073219 
	C202.048965,52.939072 204.698868,59.162613 214.005569,63.492874 
	C223.004395,67.679878 237.292038,64.738853 243.817352,56.730453 
	C238.573792,53.188450 233.390656,49.687263 227.516449,45.898392 
M198.352676,47.453392 
	C198.352676,45.043762 198.352676,42.634132 198.352676,39.866669 
	C182.247299,40.889568 169.299454,46.677032 158.130081,57.754230 
	C166.247223,64.224228 174.730698,66.766632 184.203537,64.807816 
	C192.921143,63.005169 198.344421,56.394558 198.352676,47.453392 
z"/>
<path fill="#FC1512" opacity="1.000000" stroke="none" 
	d="
M232.704666,158.800446 
	C247.735641,150.478149 257.762909,138.231827 264.029602,122.542183 
	C265.293884,122.875916 266.242859,123.054245 267.136688,123.382599 
	C268.036346,123.713104 268.881165,124.192780 270.430267,124.931458 
	C230.917816,178.354904 181.691940,215.861969 114.395943,226.586777 
	C103.797989,196.460342 99.304001,166.081879 99.626312,134.936249 
	C112.364891,130.907257 124.956665,126.924698 138.005386,122.797607 
	C146.696442,144.065628 161.877243,158.726028 184.497406,164.747925 
	C201.112320,169.171112 217.146133,166.960358 232.704666,158.800446 
z"/>
<path fill="#F6F7FB" opacity="1.000000" stroke="none" 
	d="
M148.815308,220.984375 
	C204.354889,202.884888 247.616959,162.293335 273.643982,123.668602 
	C270.810913,122.416115 268.042206,121.192101 264.925262,119.814110 
	C265.323181,118.209435 265.706543,116.663445 266.079590,115.159157 
	C280.691650,119.535156 295.069000,123.840874 310.600983,128.492371 
	C310.600983,132.855759 310.751495,138.453995 310.577545,144.042114 
	C308.956604,196.123306 295.963531,244.605606 264.638672,287.115479 
	C248.426208,309.116852 228.238297,326.783691 204.730011,340.721283 
	C201.886856,342.406952 199.844315,342.227753 197.080826,340.582184 
	C152.547440,314.064423 122.815033,275.715485 105.949799,227.019028 
	C95.324196,196.338821 90.925499,164.700714 91.413773,132.316055 
	C91.438438,130.680130 91.674713,129.047394 91.736244,128.317368 
	C106.705292,123.867477 121.121628,119.581909 135.821915,115.211922 
	C136.190033,116.453949 136.642746,117.981438 137.387558,120.494408 
	C124.001534,124.701714 110.912117,128.815781 97.158089,133.138748 
	C96.580315,165.435944 101.414955,197.561661 113.062332,229.817963 
	C124.966751,226.873291 136.696579,223.971802 148.815308,220.984375 
M208.316849,197.842102 
	C180.068527,217.081802 149.195129,229.813461 114.924538,234.613785 
	C122.060059,252.832092 131.009674,269.090607 142.359360,283.986969 
	C143.181152,285.065552 145.494064,285.764587 146.905426,285.505463 
	C152.782150,284.426666 158.645538,283.148224 164.395035,281.522827 
	C219.509888,265.941528 263.364594,233.833557 298.902435,189.593140 
	C299.711243,188.586258 300.515839,187.347626 300.719421,186.117310 
	C303.655518,168.376221 305.385529,150.542130 304.730835,132.614563 
	C297.754120,130.712219 290.939026,129.201889 284.386536,126.933075 
	C280.625427,125.630783 278.909119,126.661003 276.761993,129.681244 
	C257.987305,156.090454 235.625015,178.950928 208.316849,197.842102 
M171.357727,315.141296 
	C179.693680,321.207367 188.159363,327.105988 196.305923,333.416565 
	C199.894562,336.196472 202.515030,335.454803 205.981461,333.279449 
	C254.244690,302.991730 282.789398,258.844574 296.860229,204.467392 
	C297.029175,203.814423 296.881287,203.079483 296.881287,201.327225 
	C256.434631,247.574768 208.178314,279.012543 148.314331,291.268402 
	C148.088028,291.779846 147.861710,292.291321 147.635406,292.802795 
	C155.366135,300.092651 163.096848,307.382507 171.357727,315.141296 
z"/>
<path fill="#CC700B" opacity="1.000000" stroke="none" 
	d="
M175.493774,129.526215 
	C174.419983,129.725098 173.762131,129.825989 173.105545,129.934647 
	C165.225937,131.238419 162.680344,130.061005 158.753662,123.294403 
	C155.381760,117.483810 155.646149,108.932533 159.651657,104.540817 
	C160.578873,103.524208 162.481201,102.937363 163.937866,102.931694 
	C188.598022,102.835732 213.258682,102.844269 237.919174,102.878922 
	C242.760193,102.885727 246.320114,108.911324 245.662201,115.605957 
	C245.070480,121.627022 242.034836,126.265511 237.458817,129.920944 
	C236.457642,130.720718 234.587402,131.250626 233.420349,130.899078 
	C220.724243,127.074806 210.163589,130.502777 201.047104,140.487686 
	C194.191132,133.084778 186.145401,128.619476 175.493774,129.526215 
z"/>
<path fill="#CC700B" opacity="1.000000" stroke="none" 
	d="
M242.095123,75.050232 
	C243.391052,78.295319 244.996628,81.138145 245.499924,84.164307 
	C246.896225,92.559776 242.654770,97.349243 234.333710,97.349312 
	C212.185944,97.349487 190.038193,97.349457 167.890427,97.349342 
	C158.999664,97.349297 154.859787,92.406693 156.671875,83.412239 
	C157.278427,80.401611 158.560501,77.365547 160.200851,74.761269 
	C162.897217,70.480431 166.170013,68.128914 172.156097,69.843369 
	C183.585495,73.116837 192.927383,68.364967 200.123459,60.556068 
	C205.655182,63.748878 210.624054,67.473923 216.206787,69.541382 
	C220.004990,70.947983 224.922104,70.996346 228.875565,69.931648 
	C234.839417,68.325531 238.790802,69.774872 242.095123,75.050232 
z"/>
<path fill="#C96F0E" opacity="1.000000" stroke="none" 
	d="
M151.203278,87.596313 
	C154.533096,95.623306 155.085876,102.719795 151.903732,111.105278 
	C148.597321,119.818245 154.272415,127.312912 161.118240,133.911026 
	C159.030457,135.341690 157.080872,136.677658 155.142136,138.006195 
	C137.294815,121.219002 134.912262,83.059990 154.853638,61.961796 
	C156.707428,63.205563 158.596176,64.472794 161.001266,66.086456 
	C155.081421,72.137665 150.618668,78.577576 151.203278,87.596313 
z"/>
<path fill="#C96F0E" opacity="1.000000" stroke="none" 
	d="
M259.840149,113.607864 
	C257.368286,122.909851 253.755569,131.162369 247.405319,138.255524 
	C245.242386,136.861328 243.314056,135.618347 241.692688,134.573242 
	C244.494354,129.814590 247.755066,125.433365 249.780914,120.540817 
	C252.281418,114.501991 250.563843,108.520058 247.562378,102.842628 
	C246.855011,101.504601 246.490341,99.310257 247.097473,98.057045 
	C253.056290,85.757317 252.055969,78.196465 242.809402,68.189819 
	C242.362015,67.705658 241.968933,67.171310 241.146194,66.166451 
	C243.157623,64.718491 245.082382,63.332932 247.403275,61.662201 
	C259.881958,77.070282 263.478790,94.240181 259.840149,113.607864 
z"/>
<path fill="#CB700C" opacity="1.000000" stroke="none" 
	d="
M218.625793,135.050415 
	C228.302856,133.693146 236.354050,136.302444 243.887924,142.432098 
	C232.611603,153.353622 219.736023,159.415756 204.348267,160.137054 
	C202.440308,145.824875 202.667038,141.081070 218.625793,135.050415 
z"/>
<path fill="#CB700C" opacity="1.000000" stroke="none" 
	d="
M164.771057,148.256317 
	C162.483337,146.318542 160.477753,144.606903 158.469833,142.893250 
	C165.546936,135.024826 179.268799,132.354446 188.392426,136.846405 
	C197.665771,141.412064 200.108902,147.362000 197.642334,160.093246 
	C185.526169,159.765167 174.816177,155.515366 164.771057,148.256317 
z"/>
<path fill="#CB700C" opacity="1.000000" stroke="none" 
	d="
M227.861984,46.042236 
	C233.390656,49.687263 238.573792,53.188450 243.817352,56.730453 
	C237.292038,64.738853 223.004395,67.679878 214.005569,63.492874 
	C204.698868,59.162613 202.048965,52.939072 204.271973,40.073219 
	C212.502945,40.009369 220.132889,42.424675 227.861984,46.042236 
z"/>
<path fill="#CB700C" opacity="1.000000" stroke="none" 
	d="
M198.352936,47.924141 
	C198.344421,56.394558 192.921143,63.005169 184.203537,64.807816 
	C174.730698,66.766632 166.247223,64.224228 158.130081,57.754230 
	C169.299454,46.677032 182.247299,40.889568 198.352676,39.866669 
	C198.352676,42.634132 198.352676,45.043762 198.352936,47.924141 
z"/>
<path fill="#345AA7" opacity="1.000000" stroke="none" 
	d="
M208.606354,197.627106 
	C235.625015,178.950928 257.987305,156.090454 276.761993,129.681244 
	C278.909119,126.661003 280.625427,125.630783 284.386536,126.933075 
	C290.939026,129.201889 297.754120,130.712219 304.730835,132.614563 
	C305.385529,150.542130 303.655518,168.376221 300.719421,186.117310 
	C300.515839,187.347626 299.711243,188.586258 298.902435,189.593140 
	C263.364594,233.833557 219.509888,265.941528 164.395035,281.522827 
	C158.645538,283.148224 152.782150,284.426666 146.905426,285.505463 
	C145.494064,285.764587 143.181152,285.065552 142.359360,283.986969 
	C131.009674,269.090607 122.060059,252.832092 114.924538,234.613785 
	C149.195129,229.813461 180.068527,217.081802 208.606354,197.627106 
M232.977371,220.848312 
	C236.769409,222.785583 240.575302,224.696335 244.349991,226.666824 
	C249.105530,229.149307 253.864166,227.215240 256.651550,222.290970 
	C258.946228,220.863556 261.240906,219.436127 263.418640,218.081451 
	C259.425568,207.880005 259.466492,207.743164 267.684784,202.597290 
	C269.994751,204.076004 272.333679,205.573242 274.524384,206.975632 
	C276.666840,204.765472 278.571747,202.800339 280.679321,200.626160 
	C268.622711,192.922943 256.614380,185.250580 244.182358,177.307510 
	C241.594940,180.326584 239.134399,183.197617 236.544235,186.219894 
	C242.832443,197.768982 249.422714,209.872864 255.446838,222.610992 
	C249.576004,219.874680 243.803955,216.889465 237.793854,214.504028 
	C234.652237,213.257126 233.585281,211.256531 233.179855,208.264862 
	C232.406815,202.560593 231.487442,196.876114 230.614960,191.091400 
	C223.357727,194.069351 222.891541,194.910873 224.192719,201.595520 
	C224.945099,205.460693 225.595108,209.345810 226.291183,213.221954 
	C225.913574,213.305679 225.535965,213.389420 225.158356,213.473160 
	C222.004044,209.247589 218.849716,205.022034 215.481918,200.510483 
	C213.124924,202.248520 211.018661,203.801697 208.615555,205.573746 
	C217.046692,217.175247 225.303360,228.536667 233.707138,240.100510 
	C236.206573,238.284271 238.300140,236.762939 240.561401,235.119766 
	C237.248077,230.324539 234.241959,225.973923 231.785202,221.183258 
	C231.952393,221.018631 232.119568,220.854019 232.977371,220.848312 
M150.802734,250.362473 
	C149.421646,250.586517 148.040558,250.810562 146.577225,251.047958 
	C145.300781,245.363815 144.149323,240.236267 142.915237,234.740738 
	C139.993347,235.388489 137.512512,235.938446 134.719482,236.557632 
	C137.728149,250.686478 140.620773,264.270325 143.595108,278.237976 
	C146.563705,277.608490 149.080063,277.074890 151.804932,276.497070 
	C150.630554,270.540253 149.551315,265.066010 148.414932,259.302002 
	C151.035721,258.730896 153.238754,258.250824 155.820892,257.688171 
	C157.126419,263.326660 158.348648,268.605316 159.665665,274.293396 
	C162.495682,273.725250 165.039032,273.214661 167.962311,272.627838 
	C164.972397,258.586548 162.053711,244.879700 159.059387,230.817749 
	C156.054474,231.518143 153.566803,232.097992 150.745651,232.755554 
	C151.785294,237.753754 152.882004,242.256500 153.545776,246.822220 
	C153.690521,247.817841 152.287613,249.038452 150.802734,250.362473 
M253.047089,174.253113 
	C262.702026,182.616776 272.356934,190.980438 282.311646,199.603775 
	C284.253906,197.353104 285.910339,195.433640 287.723663,193.332397 
	C283.000275,189.139420 278.704407,185.325989 274.464813,181.562485 
	C278.316559,175.709732 278.970276,175.599594 283.750885,179.655640 
	C286.738617,182.190552 289.727478,184.724106 292.958038,187.463669 
	C295.204926,184.840424 296.996246,182.749054 298.916901,180.506714 
	C291.587158,177.324738 288.235138,168.283218 279.229706,168.852600 
	C278.445282,162.631363 273.941406,159.444321 269.143005,157.375061 
	C264.411407,155.334564 261.112183,159.011047 258.201172,162.366608 
	C256.131470,164.752411 254.172241,167.256424 251.911316,169.447205 
	C249.938156,171.359131 250.884476,172.521362 253.047089,174.253113 
M210.123260,213.341125 
	C209.024811,211.511414 207.926361,209.681686 206.620819,207.507034 
	C204.096863,208.982544 201.887970,210.273865 199.441299,211.704178 
	C200.450897,213.594269 201.185013,215.058334 201.998611,216.476822 
	C206.304184,223.983475 210.567108,231.515762 214.977707,238.960464 
	C216.872589,242.158859 216.322205,244.672714 212.794586,245.408234 
	C211.443878,245.689835 208.968323,243.994583 208.085770,242.543198 
	C202.753021,233.773254 197.733276,224.812988 192.482056,215.696228 
	C189.826523,217.237717 187.576340,218.543915 185.008438,220.034515 
	C190.469299,229.516663 195.677155,238.564621 200.890106,247.609619 
	C205.510788,255.626968 209.096085,256.560303 217.084229,251.778519 
	C218.366791,251.010757 219.585892,250.124512 220.775299,249.215775 
	C226.218170,245.057190 226.821426,242.428192 223.455032,236.469803 
	C219.199036,228.936874 214.820923,221.472961 210.123260,213.341125 
M181.948486,230.561157 
	C180.249115,228.360886 178.549759,226.160614 176.855881,223.967468 
	C174.016541,225.159286 171.441376,225.957138 169.194519,227.303055 
	C168.075165,227.973572 166.751465,229.748810 166.889755,230.852783 
	C168.553940,244.138550 170.474731,257.392212 172.381271,271.031281 
	C175.339279,270.050201 177.803650,269.232849 180.536438,268.326447 
	C180.105072,265.044067 179.723282,262.138855 179.326431,259.119202 
	C181.176620,258.335358 182.840866,257.605133 184.525055,256.924164 
	C186.049118,256.307892 187.594925,255.745361 189.067703,255.183350 
	C195.928146,263.419769 196.101852,263.463440 202.387451,258.429047 
	C195.720078,249.338028 189.044617,240.235962 181.948486,230.561157 
z"/>
<path fill="#445CA3" opacity="1.000000" stroke="none" 
	d="
M171.092651,314.906830 
	C163.096848,307.382507 155.366135,300.092651 147.635406,292.802795 
	C147.861710,292.291321 148.088028,291.779846 148.314331,291.268402 
	C208.178314,279.012543 256.434631,247.574768 296.881287,201.327225 
	C296.881287,203.079483 297.029175,203.814423 296.860229,204.467392 
	C282.789398,258.844574 254.244690,302.991730 205.981461,333.279449 
	C202.515030,335.454803 199.894562,336.196472 196.305923,333.416565 
	C188.159363,327.105988 179.693680,321.207367 171.092651,314.906830 
M286.095978,230.503479 
	C287.217194,227.373077 288.406769,224.265060 289.440277,221.105957 
	C290.458801,217.992722 291.319305,214.827759 292.249146,211.685486 
	C253.319382,252.215210 207.895966,280.524963 152.577530,292.944489 
	C164.961197,307.517670 178.940491,318.901550 193.976456,329.199036 
	C199.109894,332.714722 202.756348,332.665253 208.005844,329.224243 
	C244.802277,305.104248 270.211731,272.085052 286.095978,230.503479 
z"/>
<path fill="#F8F9FC" opacity="1.000000" stroke="none" 
	d="
M151.200104,250.258957 
	C152.287613,249.038452 153.690521,247.817841 153.545776,246.822220 
	C152.882004,242.256500 151.785294,237.753754 150.745651,232.755554 
	C153.566803,232.097992 156.054474,231.518143 159.059387,230.817749 
	C162.053711,244.879700 164.972397,258.586548 167.962311,272.627838 
	C165.039032,273.214661 162.495682,273.725250 159.665665,274.293396 
	C158.348648,268.605316 157.126419,263.326660 155.820892,257.688171 
	C153.238754,258.250824 151.035721,258.730896 148.414932,259.302002 
	C149.551315,265.066010 150.630554,270.540253 151.804932,276.497070 
	C149.080063,277.074890 146.563705,277.608490 143.595108,278.237976 
	C140.620773,264.270325 137.728149,250.686478 134.719482,236.557632 
	C137.512512,235.938446 139.993347,235.388489 142.915237,234.740738 
	C144.149323,240.236267 145.300781,245.363815 146.577225,251.047958 
	C148.040558,250.810562 149.421646,250.586517 151.200104,250.258957 
z"/>
<path fill="#F9FAFC" opacity="1.000000" stroke="none" 
	d="
M252.753052,174.020966 
	C250.884476,172.521362 249.938156,171.359131 251.911316,169.447205 
	C254.172241,167.256424 256.131470,164.752411 258.201172,162.366608 
	C261.112183,159.011047 264.411407,155.334564 269.143005,157.375061 
	C273.941406,159.444321 278.445282,162.631363 279.229706,168.852600 
	C288.235138,168.283218 291.587158,177.324738 298.916901,180.506714 
	C296.996246,182.749054 295.204926,184.840424 292.958038,187.463669 
	C289.727478,184.724106 286.738617,182.190552 283.750885,179.655640 
	C278.970276,175.599594 278.316559,175.709732 274.464813,181.562485 
	C278.704407,185.325989 283.000275,189.139420 287.723663,193.332397 
	C285.910339,195.433640 284.253906,197.353104 282.311646,199.603775 
	C272.356934,190.980438 262.702026,182.616776 252.753052,174.020966 
M266.134552,174.343552 
	C268.700836,177.171417 270.071777,174.967957 271.260254,172.990860 
	C273.415649,169.405151 269.793549,167.727432 268.036163,167.154572 
	C266.267578,166.578018 263.726654,168.370499 260.628815,169.431580 
	C263.149323,171.701736 264.363525,172.795319 266.134552,174.343552 
z"/>
<path fill="#F8F9FC" opacity="1.000000" stroke="none" 
	d="
M210.309387,213.660202 
	C214.820923,221.472961 219.199036,228.936874 223.455032,236.469803 
	C226.821426,242.428192 226.218170,245.057190 220.775299,249.215775 
	C219.585892,250.124512 218.366791,251.010757 217.084229,251.778519 
	C209.096085,256.560303 205.510788,255.626968 200.890106,247.609619 
	C195.677155,238.564621 190.469299,229.516663 185.008438,220.034515 
	C187.576340,218.543915 189.826523,217.237717 192.482056,215.696228 
	C197.733276,224.812988 202.753021,233.773254 208.085770,242.543198 
	C208.968323,243.994583 211.443878,245.689835 212.794586,245.408234 
	C216.322205,244.672714 216.872589,242.158859 214.977707,238.960464 
	C210.567108,231.515762 206.304184,223.983475 201.998611,216.476822 
	C201.185013,215.058334 200.450897,213.594269 199.441299,211.704178 
	C201.887970,210.273865 204.096863,208.982544 206.620819,207.507034 
	C207.926361,209.681686 209.024811,211.511414 210.309387,213.660202 
z"/>
<path fill="#F8FAFC" opacity="1.000000" stroke="none" 
	d="
M256.012970,221.976730 
	C249.422714,209.872864 242.832443,197.768982 236.544235,186.219894 
	C239.134399,183.197617 241.594940,180.326584 244.182358,177.307510 
	C256.614380,185.250580 268.622711,192.922943 280.679321,200.626160 
	C278.571747,202.800339 276.666840,204.765472 274.524384,206.975632 
	C272.333679,205.573242 269.994751,204.076004 267.684784,202.597290 
	C259.466492,207.743164 259.425568,207.880005 263.418640,218.081451 
	C261.240906,219.436127 258.946228,220.863556 256.309509,222.123428 
	C255.967499,221.955887 256.012970,221.976730 256.012970,221.976730 
M248.040848,189.147583 
	C247.973999,189.481964 247.907150,189.816330 247.972061,190.841782 
	C250.237747,194.638824 252.503433,198.435867 254.986557,202.597321 
	C257.117004,200.695129 258.744781,199.241730 260.737244,197.462723 
	C256.217834,194.474564 252.345993,191.914597 248.040848,189.147583 
z"/>
<path fill="#F9FAFC" opacity="1.000000" stroke="none" 
	d="
M182.158813,230.847519 
	C189.044617,240.235962 195.720078,249.338028 202.387451,258.429047 
	C196.101852,263.463440 195.928146,263.419769 189.067703,255.183350 
	C187.594925,255.745361 186.049118,256.307892 184.525055,256.924164 
	C182.840866,257.605133 181.176620,258.335358 179.326431,259.119202 
	C179.723282,262.138855 180.105072,265.044067 180.536438,268.326447 
	C177.803650,269.232849 175.339279,270.050201 172.381271,271.031281 
	C170.474731,257.392212 168.553940,244.138550 166.889755,230.852783 
	C166.751465,229.748810 168.075165,227.973572 169.194519,227.303055 
	C171.441376,225.957138 174.016541,225.159286 176.855881,223.967468 
	C178.549759,226.160614 180.249115,228.360886 182.158813,230.847519 
M179.289459,240.143661 
	C178.226349,238.994934 177.163223,237.846191 176.100113,236.697464 
	C175.848938,236.920761 175.597763,237.144073 175.346588,237.367371 
	C176.167328,241.809021 176.988052,246.250671 177.881119,251.083771 
	C180.365509,250.142273 182.310883,249.405060 184.754166,248.479156 
	C182.929703,245.665115 181.331482,243.199982 179.289459,240.143661 
z"/>
<path fill="#F7F9FC" opacity="1.000000" stroke="none" 
	d="
M231.235840,221.623306 
	C234.241959,225.973923 237.248077,230.324539 240.561401,235.119766 
	C238.300140,236.762939 236.206573,238.284271 233.707138,240.100510 
	C225.303360,228.536667 217.046692,217.175247 208.615555,205.573746 
	C211.018661,203.801697 213.124924,202.248520 215.481918,200.510483 
	C218.849716,205.022034 222.004044,209.247589 225.158356,213.473160 
	C225.535965,213.389420 225.913574,213.305679 226.291183,213.221954 
	C225.595108,209.345810 224.945099,205.460693 224.192719,201.595520 
	C222.891541,194.910873 223.357727,194.069351 230.614960,191.091400 
	C231.487442,196.876114 232.406815,202.560593 233.179855,208.264862 
	C233.585281,211.256531 234.652237,213.257126 237.793854,214.504028 
	C243.803955,216.889465 249.576004,219.874680 255.729904,222.293854 
	C256.012970,221.976730 255.967499,221.955887 255.959290,221.931030 
	C253.864166,227.215240 249.105530,229.149307 244.349991,226.666824 
	C240.575302,224.696335 236.769409,222.785583 232.456497,220.556824 
	C231.436050,220.364380 230.936493,220.463440 230.436920,220.562500 
	C230.703232,220.916107 230.969528,221.269699 231.235840,221.623306 
z"/>
<path fill="#FB1612" opacity="1.000000" stroke="none" 
	d="
M285.991638,230.878204 
	C270.211731,272.085052 244.802277,305.104248 208.005844,329.224243 
	C202.756348,332.665253 199.109894,332.714722 193.976456,329.199036 
	C178.940491,318.901550 164.961197,307.517670 152.577530,292.944489 
	C207.895966,280.524963 253.319382,252.215210 292.249146,211.685486 
	C291.319305,214.827759 290.458801,217.992722 289.440277,221.105957 
	C288.406769,224.265060 287.217194,227.373077 285.991638,230.878204 
z"/>
<path fill="#3B60AA" opacity="1.000000" stroke="none" 
	d="
M265.856140,174.116241 
	C264.363525,172.795319 263.149323,171.701736 260.628815,169.431580 
	C263.726654,168.370499 266.267578,166.578018 268.036163,167.154572 
	C269.793549,167.727432 273.415649,169.405151 271.260254,172.990860 
	C270.071777,174.967957 268.700836,177.171417 265.856140,174.116241 
z"/>
<path fill="#3F63AC" opacity="1.000000" stroke="none" 
	d="
M248.474167,189.354614 
	C252.345993,191.914597 256.217834,194.474564 260.737244,197.462723 
	C258.744781,199.241730 257.117004,200.695129 254.986557,202.597321 
	C252.503433,198.435867 250.237747,194.638824 248.078949,190.308609 
	C248.281921,189.635162 248.378036,189.494904 248.474167,189.354614 
z"/>
<path fill="#3F63AC" opacity="1.000000" stroke="none" 
	d="
M248.013062,189.963074 
	C247.907150,189.816330 247.973999,189.481964 248.257507,189.251099 
	C248.378036,189.494904 248.281921,189.635162 248.013062,189.963074 
z"/>
<path fill="#4064AC" opacity="1.000000" stroke="none" 
	d="
M179.511353,240.439270 
	C181.331482,243.199982 182.929703,245.665115 184.754166,248.479156 
	C182.310883,249.405060 180.365509,250.142273 177.881119,251.083771 
	C176.988052,246.250671 176.167328,241.809021 175.346588,237.367371 
	C175.597763,237.144073 175.848938,236.920761 176.100113,236.697464 
	C177.163223,237.846191 178.226349,238.994934 179.511353,240.439270 
z"/>
<path fill="#345AA7" opacity="1.000000" stroke="none" 
	d="
M231.510529,221.403290 
	C230.969528,221.269699 230.703232,220.916107 230.436920,220.562500 
	C230.936493,220.463440 231.436050,220.364380 232.111191,220.477356 
	C232.119568,220.854019 231.952393,221.018631 231.510529,221.403290 
z"/>
</svg>